<svg width="189" height="61" viewBox="0 0 189 61" fill="none" xmlns="http://www.w3.org/2000/svg">
<path d="M187.834 22.8915C188.145 26.6386 185.974 30.509 181.553 34.3139C177.143 38.11 170.577 41.7647 162.317 45.0705C145.803 51.6796 122.63 56.8505 96.7164 59.0011C70.803 61.1518 47.0947 59.8719 29.7171 56.0756C21.0252 54.1768 13.946 51.6546 8.97024 48.6376C3.98279 45.6134 1.20372 42.1539 0.892726 38.4068C0.581735 34.6597 2.75246 30.7894 7.17313 26.9844C11.5834 23.1884 18.15 19.5336 26.4099 16.2279C42.9239 9.61879 66.0968 4.4479 92.0102 2.2972C117.924 0.146508 141.632 1.42647 159.009 5.22273C167.701 7.12154 174.781 9.64377 179.756 12.6608C184.744 15.6849 187.523 19.1445 187.834 22.8915Z" stroke="white"/>
</svg>
